<svg width="48" height="65" viewBox="0 0 48 65" fill="none" xmlns="http://www.w3.org/2000/svg">
<path d="M4.51127 26.6948C10.2968 25.8962 13.5827 25.8112 19.4991 26.1355L19.6483 26.6575L0 30.6095C2.81196 47.611 5.81574 53.8739 16.0318 64.2762C9.56483 55.3646 6.15869 49.9751 4.51127 32.4364C9.89517 29.8575 13.531 29.0002 19.9838 27.4404L20.2448 28.037L7.49392 34.3005C8.65315 48.4617 10.9578 51.6722 14.8014 58.1618C11.7264 50.8313 10.3236 46.3003 10.3274 34.9344C14.1108 32.4601 16.3373 31.1072 20.5803 28.7826L20.7295 29.0809C18.6198 30.4386 17.5088 31.3041 15.6589 33.0329C15.3961 36.2752 15.4578 37.8211 15.8081 40.2659C18.7174 44.6921 20.4774 46.0523 23.7121 47.6479C28.4961 44.381 30.3024 42.7057 31.5043 40.0794C31.758 38.3016 31.711 36.4915 31.5043 32.7347L26.3965 29.0436L26.5456 28.7453C30.585 31.0633 32.8524 32.3002 36.8731 35.0462C36.4983 48.4352 35.0421 51.6578 32.6974 58.2736C36.7521 50.2897 39.2322 46.0342 39.7066 34.226C36.8052 32.5944 33.2636 30.8865 26.8812 27.8133L27.1049 27.4404C33.959 29.2699 37.515 30.3381 42.8011 32.3991C41.7314 48.8648 37.6722 54.0443 31.2806 64.2762C39.6306 53.7181 45.136 48.8001 47.2378 30.6468C47.2378 30.6468 34.1607 27.2462 27.5523 26.5829L27.7014 26.0237C33.2976 25.7444 36.5048 25.7267 42.7266 26.6948C43.39 20.5894 42.6043 17.2954 39.1101 11.6324C40.6892 17.2575 41.2984 20.2425 40.2659 24.2714C35.0635 24.2073 32.2824 24.3075 27.7014 24.8679L27.4032 24.3832C31.7781 21.9083 33.6047 21.0599 35.5309 20.6922C36.1031 13.347 36.8248 9.34639 30.5722 0C33.7743 8.08966 33.8731 12.1782 32.8838 19.1636L26.7321 23.4511L26.2101 22.8546L27.8133 21.1023C26.7575 19.6685 26.1233 19.2944 24.9797 18.7535C25.8603 20.1231 26.034 20.6378 25.7627 21.1023C25.4574 21.5132 25.2314 21.6941 24.6815 21.8852H22.2208C21.8285 21.6849 21.6228 21.5086 21.326 20.8786C21.5592 19.7104 21.7495 19.2787 22.2208 18.7535C20.8754 19.3188 20.212 19.7782 19.35 21.1023L20.9904 22.8546L20.5058 23.4139L14.3168 19.089C13.1622 12.2555 13.625 8.11066 16.591 0.11185C11.6231 6.78224 10.9116 11.4383 11.7069 20.6549C13.8471 21.0835 15.9415 22.1928 19.7228 24.2341L19.4991 24.8679C14.6899 24.4285 11.984 24.2043 6.97196 24.2341C6.04741 20.5145 6.3847 16.1518 8.12774 11.6324C4.71551 16.8122 3.86648 20.0904 4.51127 26.6948Z" fill="#FFEFEF"/>
</svg>
